<svg xmlns="http://www.w3.org/2000/svg" width="540" height="161" fill="none"><path d="M536.418 142.041a15.324 15.324 0 0 1-15.344 15.324H18.927a15.343 15.343 0 0 1-15.364-15.324V19.835A15.362 15.362 0 0 1 18.927 4.491H521.07a15.35 15.35 0 0 1 10.851 4.495 15.34 15.34 0 0 1 4.493 10.85l.004 122.205z" fill="#fff"></path><path d="M521.073 160.93H18.926A18.93 18.93 0 0 1 0 142.041V19.839A18.935 18.935 0 0 1 5.552 6.473 18.945 18.945 0 0 1 18.926.93H521.07c5.016.007 9.824 2 13.372 5.545a18.943 18.943 0 0 1 5.554 13.364v122.202c.008 10.419-8.496 18.889-18.922 18.889z" fill="#A6A6A6"></path><path d="M536.418 142.041a15.324 15.324 0 0 1-15.344 15.324H18.927a15.343 15.343 0 0 1-15.364-15.324V19.835A15.362 15.362 0 0 1 18.927 4.491H521.07a15.35 15.35 0 0 1 10.851 4.495 15.34 15.34 0 0 1 4.493 10.85l.004 122.205z" fill="#000"></path><path d="M120.577 80.088c-.116-12.895 10.562-19.17 11.05-19.461-6.047-8.815-15.42-10.019-18.714-10.115-7.872-.828-15.508 4.71-19.519 4.71-4.09 0-10.265-4.63-16.92-4.494-8.565.132-16.578 5.09-20.972 12.788-9.069 15.696-2.305 38.762 6.383 51.45 4.347 6.217 9.426 13.151 16.073 12.907 6.504-.264 8.933-4.141 16.781-4.141 7.776 0 10.058 4.141 16.837 3.985 6.98-.108 11.374-6.242 15.569-12.511 5.022-7.118 7.039-14.136 7.12-14.496-.161-.056-13.552-5.17-13.688-20.622zM107.77 42.166c3.498-4.373 5.891-10.323 5.227-16.36-5.063.223-11.394 3.5-15.04 7.777-3.226 3.77-6.107 9.947-5.363 15.757 5.687.424 11.526-2.87 15.176-7.174z" fill="#fff"></path><path d="M521.073.93H252.107l105.349 160h163.617a18.937 18.937 0 0 0 18.926-18.901V19.839A18.94 18.94 0 0 0 521.073.93z" fill="url(#a)"></path><path d="M214.777 126.981h-9.089l-4.979-15.641h-17.305l-4.743 15.641h-8.849l17.15-53.247h10.589l17.226 53.247zm-15.569-22.202-4.502-13.904c-.476-1.42-1.373-4.766-2.686-10.031h-.16c-.528 2.265-1.372 5.61-2.529 10.03l-4.426 13.905h14.303zm59.585 2.532c0 6.53-1.773 11.691-5.323 15.481-3.178 3.372-7.128 5.057-11.839 5.057-5.086 0-8.744-1.813-10.966-5.446v20.146h-8.532v-41.343c0-4.102-.108-8.307-.316-12.62h7.504l.476 6.086h.16c2.845-4.585 7.164-6.878 12.959-6.878 4.53 0 8.312 1.788 11.338 5.37 3.022 3.588 4.539 8.302 4.539 14.147zm-8.693.312c0-3.737-.841-6.818-2.53-9.246-1.845-2.525-4.322-3.79-7.428-3.79-2.105 0-4.018.705-5.727 2.093-1.713 1.4-2.833 3.23-3.357 5.494a11.18 11.18 0 0 0-.397 2.597v6.405c0 2.789.857 5.146 2.57 7.074 1.713 1.921 3.938 2.885 6.675 2.885 3.214 0 5.715-1.244 7.504-3.713 1.793-2.477 2.69-5.742 2.69-9.799zm52.864-.312c0 6.53-1.773 11.691-5.322 15.481-3.182 3.372-7.128 5.057-11.843 5.057-5.087 0-8.745-1.813-10.966-5.446v20.146h-8.532v-41.343c0-4.102-.108-8.307-.317-12.62h7.504l.477 6.086h.16c2.841-4.585 7.16-6.878 12.959-6.878 4.526 0 8.308 1.788 11.342 5.37 3.018 3.588 4.538 8.302 4.538 14.147zm-8.696.312c0-3.737-.845-6.818-2.534-9.246-1.845-2.525-4.314-3.79-7.42-3.79-2.105 0-4.018.705-5.735 2.093-1.713 1.4-2.829 3.23-3.354 5.494-.26 1.056-.4 1.916-.4 2.597v6.405c0 2.789.861 5.146 2.566 7.074 1.712 1.917 3.938 2.885 6.683 2.885 3.218 0 5.719-1.244 7.504-3.713 1.793-2.477 2.69-5.742 2.69-9.799zm58.083 4.422c0 4.533-1.585 8.218-4.735 11.063-3.465 3.104-8.304 4.661-14.507 4.661-5.731 0-10.326-1.104-13.792-3.317l1.973-7.11c3.742 2.217 7.852 3.321 12.327 3.321 3.218 0 5.719-.728 7.504-2.173 1.789-1.448 2.693-3.385 2.693-5.801 0-2.165-.748-3.977-2.217-5.454-1.477-1.472-3.918-2.845-7.348-4.105-9.325-3.477-13.991-8.562-13.991-15.252 0-4.37 1.649-7.946 4.938-10.743 3.29-2.793 7.653-4.19 13.079-4.19 4.847 0 8.885.845 12.091 2.53l-2.141 6.953c-3.018-1.632-6.424-2.448-10.234-2.448-3.009 0-5.371.74-7.06 2.212-1.42 1.317-2.141 2.921-2.141 4.826 0 2.1.821 3.845 2.454 5.213 1.416 1.26 4.002 2.633 7.74 4.105 4.586 1.849 7.956 4.001 10.113 6.474 2.173 2.473 3.254 5.558 3.254 9.235zm28.283-17.057h-9.405v18.641c0 4.741 1.657 7.106 4.979 7.106 1.525 0 2.789-.128 3.79-.396l.236 6.478c-1.681.628-3.894.944-6.636.944-3.369 0-6.003-1.028-7.904-3.085-1.893-2.057-2.845-5.501-2.845-10.351V94.972h-5.603V88.57h5.603v-7.03l8.38-2.529v9.56h9.405v6.417zm42.351 12.479c0 5.902-1.689 10.747-5.059 14.536-3.525 3.901-8.216 5.846-14.063 5.846-5.643 0-10.13-1.869-13.475-5.602-3.346-3.741-5.019-8.454-5.019-14.14 0-5.949 1.729-10.823 5.175-14.612 3.453-3.793 8.104-5.69 13.951-5.69 5.635 0 10.162 1.873 13.587 5.61 3.274 3.625 4.903 8.307 4.903 14.052zm-8.845.196c0-3.517-.76-6.533-2.285-9.058-1.789-3.049-4.35-4.573-7.668-4.573-3.418 0-6.039 1.524-7.824 4.573-1.529 2.525-2.289 5.593-2.289 9.218 0 3.521.76 6.546 2.289 9.063 1.845 3.049 4.418 4.573 7.752 4.573 3.262 0 5.819-1.556 7.668-4.649 1.569-2.585 2.357-5.622 2.357-9.147zm36.592-11.575a14.85 14.85 0 0 0-2.689-.236c-3.002 0-5.323 1.128-6.956 3.401-1.417 2.001-2.129 4.529-2.129 7.582v20.146h-8.533v-26.304c.008-4.03-.075-8.06-.248-12.087h7.432l.312 7.346h.236c.905-2.525 2.322-4.561 4.267-6.086a10.316 10.316 0 0 1 6.167-2.056c.788 0 1.501.056 2.133.156l.008 8.138zm38.161 9.879a20.072 20.072 0 0 1-.312 3.869h-25.598c.096 3.793 1.336 6.698 3.714 8.698 2.157 1.785 4.946 2.681 8.372 2.681 3.79 0 7.248-.6 10.358-1.812l1.337 5.917c-3.634 1.585-7.925 2.373-12.875 2.373-5.956 0-10.63-1.753-14.032-5.25-3.394-3.501-5.095-8.206-5.095-14.099 0-5.786 1.581-10.607 4.747-14.452 3.314-4.106 7.792-6.158 13.427-6.158 5.535 0 9.725 2.052 12.571 6.158 2.253 3.252 3.386 7.286 3.386 12.075zm-8.137-2.213c.06-2.532-.5-4.713-1.657-6.558-1.476-2.376-3.75-3.56-6.795-3.56-2.79 0-5.063 1.156-6.792 3.476-1.421 1.845-2.265 4.062-2.525 6.634l17.769.008zM180.942 54.909c-2.373 0-4.426-.116-6.135-.312V28.854a46.46 46.46 0 0 1 7.224-.544c9.785 0 14.291 4.813 14.291 12.66 0 9.05-5.323 13.939-15.38 13.939zm1.433-23.298c-1.321 0-2.446.08-3.378.272v19.57c.504.08 1.473.115 2.833.115 6.412 0 10.062-3.649 10.062-10.483 0-6.093-3.302-9.474-9.517-9.474zm27.991 23.494c-5.515 0-9.089-4.117-9.089-9.707 0-5.825 3.65-9.978 9.401-9.978 5.435 0 9.089 3.92 9.089 9.67 0 5.898-3.766 10.015-9.401 10.015zm.16-16.62c-3.03 0-4.971 2.832-4.971 6.793 0 3.886 1.981 6.718 4.931 6.718 2.949 0 4.931-3.029 4.931-6.798 0-3.84-1.941-6.714-4.891-6.714zm40.69-2.677-5.903 18.869h-3.846l-2.446-8.194a62.255 62.255 0 0 1-1.517-6.094h-.08c-.308 2.057-.892 4.117-1.512 6.094l-2.602 8.194h-3.886l-5.555-18.87h4.31l2.138 8.971c.504 2.137.928 4.153 1.28 6.058h.08c.308-1.588.813-3.573 1.553-6.018l2.682-9.006h3.417l2.566 8.814a74.308 74.308 0 0 1 1.517 6.214h.112c.272-1.94.7-4.001 1.28-6.214l2.294-8.814 4.118-.004zm21.732 18.869h-4.195V43.842c0-3.337-1.28-5.01-3.806-5.01-2.485 0-4.194 2.137-4.194 4.622v11.223h-4.194V41.201c0-1.668-.04-3.457-.156-5.397h3.69l.196 2.913h.116c1.128-2.017 3.418-3.297 5.983-3.297 3.962 0 6.564 3.029 6.564 7.958l-.004 11.299zm11.566 0h-4.198V27.149h4.198v27.528zm15.292.428c-5.511 0-9.089-4.117-9.089-9.707 0-5.825 3.65-9.978 9.397-9.978 5.439 0 9.089 3.92 9.089 9.67.004 5.898-3.766 10.015-9.397 10.015zm.156-16.62c-3.029 0-4.971 2.832-4.971 6.793 0 3.886 1.986 6.718 4.927 6.718 2.954 0 4.931-3.029 4.931-6.798.004-3.84-1.933-6.714-4.887-6.714zm25.778 16.192-.304-2.173h-.112c-1.281 1.749-3.15 2.601-5.519 2.601-3.382 0-5.783-2.368-5.783-5.553 0-4.658 4.038-7.066 11.03-7.066v-.348c0-2.485-1.317-3.73-3.918-3.73-1.861 0-3.494.469-4.931 1.4l-.853-2.756c1.745-1.088 3.923-1.632 6.48-1.632 4.931 0 7.42 2.6 7.42 7.806v6.95c0 1.904.084 3.38.272 4.505l-3.782-.004zm-.576-9.399c-4.659 0-6.996 1.129-6.996 3.805 0 1.981 1.205 2.95 2.878 2.95 2.133 0 4.118-1.63 4.118-3.842v-2.913zm24.453 9.399-.196-3.029h-.116c-1.205 2.289-3.23 3.457-6.059 3.457-4.551 0-7.921-4.001-7.921-9.63 0-5.902 3.494-10.06 8.265-10.06 2.525 0 4.314.853 5.323 2.565h.084V27.15h4.198v22.442c0 1.824.044 3.533.156 5.085h-3.734zm-.62-11.103c0-2.64-1.749-4.893-4.419-4.893-3.109 0-5.01 2.756-5.01 6.637 0 3.806 1.973 6.41 4.926 6.41 2.638 0 4.503-2.293 4.503-5.01v-3.144zm30.816 11.531c-5.511 0-9.085-4.117-9.085-9.707 0-5.825 3.65-9.978 9.397-9.978 5.439 0 9.089 3.92 9.089 9.67.004 5.898-3.762 10.015-9.401 10.015zm.156-16.62c-3.025 0-4.966 2.832-4.966 6.793 0 3.886 1.981 6.718 4.926 6.718 2.954 0 4.931-3.029 4.931-6.798.008-3.84-1.933-6.714-4.891-6.714zm31.802 16.192h-4.199V43.842c0-3.337-1.28-5.01-3.806-5.01-2.485 0-4.19 2.137-4.19 4.622v11.223h-4.198V41.201c0-1.668-.04-3.457-.156-5.397h3.69l.196 2.913h.116c1.124-2.017 3.418-3.301 5.979-3.301 3.962 0 6.568 3.029 6.568 7.958v11.303zm28.219-15.724h-4.615v9.162c0 2.333.809 3.497 2.442 3.497.74 0 1.36-.08 1.861-.196l.116 3.185c-.813.312-1.901.468-3.254.468-3.306 0-5.283-1.824-5.283-6.602v-9.514h-2.753v-3.145h2.753V32.35l4.118-1.244v4.697h4.615v3.149zm22.204 15.724h-4.191V43.922c0-3.377-1.276-5.085-3.806-5.085-2.173 0-4.198 1.476-4.198 4.465v11.375h-4.19V27.149h4.19v11.335h.084c1.321-2.056 3.234-3.068 5.675-3.068 3.994 0 6.436 3.105 6.436 8.038v11.223zm22.748-8.426h-12.587c.08 3.573 2.446 5.59 5.947 5.59 1.861 0 3.574-.313 5.087-.893l.652 2.913c-1.784.776-3.886 1.164-6.331 1.164-5.903 0-9.397-3.729-9.397-9.51 0-5.786 3.578-10.135 8.925-10.135 4.822 0 7.848 3.573 7.848 8.97a8.078 8.078 0 0 1-.144 1.9zm-3.846-2.99c0-2.912-1.469-4.969-4.15-4.969-2.41 0-4.315 2.097-4.587 4.97h8.737z" fill="#fff"></path><defs><linearGradient id="a" x1="396.049" y1="161.355" x2="396.049" y2="-415.682" gradientUnits="userSpaceOnUse"><stop stop-color="#1A1A1A" stop-opacity=".1"></stop><stop offset=".123" stop-color="#212121" stop-opacity=".151"></stop><stop offset=".308" stop-color="#353535" stop-opacity=".227"></stop><stop offset=".532" stop-color="#575757" stop-opacity=".318"></stop><stop offset=".783" stop-color="#858585" stop-opacity=".421"></stop><stop offset="1" stop-color="#B3B3B3" stop-opacity=".51"></stop></linearGradient></defs></svg>