<svg xmlns="http://www.w3.org/2000/svg" width="540" height="159" fill="none"><path fill-rule="evenodd" clip-rule="evenodd" d="M519.993 159H20.007C8.98 159 0 150.039 0 139.125V19.875C0 8.921 8.98 0 20.007 0h499.986C531.01 0 540 8.921 540 19.875v119.25c0 10.914-8.99 19.875-20.007 19.875z" fill="#000"></path><path fill-rule="evenodd" clip-rule="evenodd" d="M519.993 3.182c9.248 0 16.818 7.504 16.818 16.693v119.25c0 9.189-7.52 16.693-16.818 16.693H20.007c-9.248 0-16.818-7.504-16.818-16.693V19.875c0-9.19 7.52-16.693 16.818-16.693h499.986zm0-3.182H20.007C8.98 0 0 8.961 0 19.875v119.25C0 150.079 8.98 159 20.007 159h499.986C531.01 159 540 150.079 540 139.125V19.875C540 8.961 531.01 0 519.993 0z" fill="#A6A6A6"></path><path d="M284.473 52.597c-3.606 0-6.646-1.26-9.05-3.737a12.711 12.711 0 0 1-3.655-9.12c0-3.618 1.231-6.681 3.655-9.11 2.394-2.478 5.434-3.737 9.04-3.737 3.567 0 6.607 1.259 9.05 3.737 2.424 2.508 3.656 5.571 3.656 9.11-.04 3.628-1.271 6.691-3.656 9.11-2.394 2.498-5.434 3.747-9.04 3.747zm-107.298 0c-3.527 0-6.587-1.24-9.09-3.688-2.484-2.438-3.745-5.521-3.745-9.16 0-3.637 1.261-6.72 3.745-9.159 2.454-2.448 5.513-3.687 9.09-3.687 1.748 0 3.447.347 5.076 1.05 1.599.685 2.901 1.617 3.864 2.756l.239.288-2.692 2.637-.278-.327c-1.52-1.805-3.557-2.687-6.249-2.687-2.404 0-4.5.853-6.229 2.538-1.738 1.695-2.622 3.915-2.622 6.602 0 2.686.884 4.907 2.622 6.602 1.729 1.685 3.825 2.537 6.229 2.537 2.563 0 4.719-.852 6.398-2.537.993-.992 1.609-2.38 1.827-4.134h-8.632v-3.707h12.338l.05.337c.089.624.178 1.269.178 1.863 0 3.42-1.033 6.186-3.079 8.228-2.325 2.419-5.365 3.648-9.04 3.648zm142.664-.526h-3.805l-11.653-18.606.1 3.35v15.247h-3.805V27.428h4.341l.119.189 10.958 17.525-.1-3.34V27.428h3.845v24.643zm-63.956 0h-3.855V31.136h-6.685v-3.708h17.216v3.708h-6.686V52.07h.01zm-13.679 0h-3.845V27.428h3.845v24.643zm-21.607 0h-3.845V31.136h-6.685v-3.708h17.216v3.708h-6.686V52.07zm-12.964-.04h-14.742V27.429h14.742v3.708h-10.888v6.76h9.825v3.668h-9.825v6.76h10.888v3.708zm70.612-5.719c1.718 1.715 3.804 2.577 6.228 2.577 2.494 0 4.53-.842 6.229-2.577 1.689-1.685 2.543-3.896 2.543-6.562 0-2.667-.854-4.887-2.533-6.562-1.719-1.715-3.815-2.578-6.229-2.578-2.493 0-4.53.843-6.218 2.578-1.689 1.685-2.544 3.895-2.544 6.562 0 2.666.845 4.887 2.524 6.562z" fill="#fff"></path><path fill-rule="evenodd" clip-rule="evenodd" d="M271.411 86.479c-9.388 0-16.997 7.107-16.997 16.911 0 9.714 7.659 16.911 16.997 16.911 9.388 0 16.997-7.157 16.997-16.911 0-9.804-7.609-16.911-16.997-16.911zm0 27.121c-5.136 0-9.557-4.243-9.557-10.25 0-6.096 4.431-10.25 9.557-10.25 5.136 0 9.557 4.154 9.557 10.25.01 6.047-4.421 10.25-9.557 10.25zm-37.084-27.121c-9.388 0-16.997 7.107-16.997 16.911 0 9.714 7.659 16.911 16.997 16.911 9.388 0 16.997-7.157 16.997-16.911 0-9.804-7.619-16.911-16.997-16.911zm0 27.121c-5.136 0-9.557-4.243-9.557-10.25 0-6.096 4.431-10.25 9.557-10.25 5.136 0 9.557 4.154 9.557 10.25 0 6.047-4.421 10.25-9.557 10.25zM190.2 91.643V98.8h17.215c-.526 4.015-1.857 6.979-3.894 9.011-2.523 2.518-6.417 5.254-13.282 5.254-10.58 0-18.855-8.525-18.855-19.082S179.659 74.9 190.239 74.9c5.712 0 9.875 2.25 12.964 5.125l5.087-5.076c-4.292-4.104-10.004-7.246-18.011-7.246-14.514 0-26.693 11.796-26.693 26.24 0 14.482 12.169 26.238 26.693 26.238 7.838 0 13.719-2.557 18.368-7.375 4.739-4.728 6.239-11.4 6.239-16.782 0-1.675-.129-3.182-.397-4.461H190.19c.01-.01.01.08.01.08zm180.493 5.571c-1.421-3.796-5.712-10.775-14.514-10.775-8.722 0-15.974 6.85-15.974 16.911 0 9.497 7.173 16.911 16.819 16.911 7.748 0 12.258-4.728 14.116-7.504l-5.752-3.846c-1.907 2.825-4.56 4.679-8.325 4.679-3.804 0-6.467-1.725-8.235-5.125l22.66-9.367c0 .01-.795-1.884-.795-1.884zm-23.107 5.651c-.179-6.533 5.086-9.854 8.851-9.854 2.971 0 5.444 1.457 6.289 3.579l-15.14 6.275zm-18.408 16.385h7.441V69.568h-7.441v49.682zm-12.219-29.014h-.268c-1.679-1.993-4.868-3.797-8.941-3.797-8.454 0-16.242 7.425-16.242 16.961 0 9.496 7.749 16.832 16.242 16.832 4.024 0 7.262-1.814 8.941-3.847h.268v2.429c0 6.453-3.457 9.933-9.03 9.933-4.56 0-7.391-3.272-8.543-6.007l-6.467 2.696c1.857 4.46 6.814 9.982 15 9.982 8.722 0 16.113-5.125 16.113-17.625V87.45h-7.033v2.786h-.04zm-8.543 23.364c-5.136 0-9.428-4.282-9.428-10.2 0-5.968 4.292-10.29 9.428-10.29 5.086 0 9.03 4.372 9.03 10.29.05 5.918-3.934 10.2-9.03 10.2zm97.116-44.032H387.74v49.682h7.441v-18.814h10.361c8.235 0 16.332-5.958 16.332-15.414 0-9.457-8.067-15.454-16.342-15.454zm.219 23.929h-10.58v-17.05h10.58c5.573 0 8.722 4.59 8.722 8.525 0 3.896-3.189 8.525-8.722 8.525zm45.945-7.107c-5.404 0-10.977 2.388-13.282 7.593l6.596 2.736c1.421-2.736 4.024-3.668 6.775-3.668 3.855 0 7.749 2.3 7.838 6.403v.526c-1.331-.754-4.251-1.903-7.748-1.903-7.123 0-14.345 3.885-14.345 11.171 0 6.672 5.841 10.954 12.348 10.954 4.997 0 7.749-2.25 9.467-4.857h.268v3.846h7.173v-19.033c0-8.862-6.596-13.768-15.09-13.768zm-.934 27.21c-2.434 0-5.841-1.19-5.841-4.243 0-3.846 4.252-5.303 7.878-5.303 3.278 0 4.828.704 6.775 1.675-.537 4.461-4.312 7.831-8.812 7.871zm42.19-26.15L484.409 109h-.268l-8.851-21.55h-8.007l13.282 30.125-7.57 16.743h7.748l20.435-46.868h-8.226zm-66.976 31.8h7.441V69.568h-7.441v49.682z" fill="#fff"></path><path fill-rule="evenodd" clip-rule="evenodd" d="M41.564 29.946c-1.152 1.24-1.818 3.133-1.818 5.611v87.896c0 2.478.666 4.372 1.858 5.561l.308.268 49.353-49.247v-1.1L41.872 29.679l-.308.267z" fill="url(#a)"></path><path fill-rule="evenodd" clip-rule="evenodd" d="m107.685 96.5-16.46-16.425v-1.15l16.46-16.425.358.218 19.471 11.042c5.573 3.133 5.573 8.307 0 11.48l-19.471 11.042-.358.218z" fill="url(#b)"></path><path fill-rule="evenodd" clip-rule="evenodd" d="M108.044 96.282 91.225 79.5l-49.66 49.554c1.817 1.943 4.867 2.161 8.275.267l58.204-33.039z" fill="url(#c)"></path><path fill-rule="evenodd" clip-rule="evenodd" d="M108.044 62.718 49.84 29.728c-3.408-1.943-6.468-1.675-8.276.268L91.226 79.5l16.819-16.782z" fill="url(#d)"></path><path opacity=".2" fill-rule="evenodd" clip-rule="evenodd" d="m107.685 95.925-57.806 32.772c-3.229 1.853-6.11 1.725-7.968.039l-.308.308.308.267c1.858 1.676 4.74 1.814 7.968-.039l58.204-32.99-.398-.357z" fill="#000"></path><path opacity=".12" fill-rule="evenodd" clip-rule="evenodd" d="m127.515 84.665-19.878 11.26.357.357 19.471-11.042c2.792-1.587 4.163-3.668 4.163-5.74-.169 1.903-1.59 3.707-4.113 5.165z" fill="#000"></path><path opacity=".25" fill-rule="evenodd" clip-rule="evenodd" d="m49.84 30.303 77.674 44.033c2.524 1.417 3.944 3.27 4.163 5.164 0-2.072-1.371-4.153-4.163-5.74L49.839 29.729c-5.573-3.182-10.093-.525-10.093 5.83v.574c0-6.364 4.52-8.971 10.093-5.829z" fill="#fff"></path><defs><linearGradient id="a" x1="86.838" y1="34.609" x2="7.806" y2="55.712" gradientUnits="userSpaceOnUse"><stop stop-color="#00A0FF"></stop><stop offset=".007" stop-color="#00A1FF"></stop><stop offset=".26" stop-color="#00BEFF"></stop><stop offset=".512" stop-color="#00D2FF"></stop><stop offset=".76" stop-color="#00DFFF"></stop><stop offset="1" stop-color="#00E3FF"></stop></linearGradient><linearGradient id="b" x1="134.782" y1="79.5" x2="38.391" y2="79.5" gradientUnits="userSpaceOnUse"><stop stop-color="#FFE000"></stop><stop offset=".409" stop-color="#FFBD00"></stop><stop offset=".775" stop-color="orange"></stop><stop offset="1" stop-color="#FF9C00"></stop></linearGradient><linearGradient id="c" x1="98.898" y1="88.632" x2="35.636" y2="195.338" gradientUnits="userSpaceOnUse"><stop stop-color="#FF3A44"></stop><stop offset="1" stop-color="#C31162"></stop></linearGradient><linearGradient id="d" x1="29.059" y1=".711" x2="57.283" y2="48.367" gradientUnits="userSpaceOnUse"><stop stop-color="#32A071"></stop><stop offset=".069" stop-color="#2DA771"></stop><stop offset=".476" stop-color="#15CF74"></stop><stop offset=".801" stop-color="#06E775"></stop><stop offset="1" stop-color="#00F076"></stop></linearGradient></defs></svg>