<svg xmlns="http://www.w3.org/2000/svg" width="540" height="161" viewBox="0 0 540 161" fill="none"><path d="M536.418 142.041C536.418 144.055 536.021 146.049 535.25 147.909C534.478 149.769 533.348 151.459 531.923 152.883C530.498 154.306 528.806 155.434 526.945 156.203C525.083 156.973 523.088 157.367 521.074 157.365H18.9268C14.8569 157.369 10.9519 155.757 8.07064 152.884C5.18939 150.01 3.5678 146.11 3.5625 142.041V19.8354C3.5678 15.7647 5.18875 11.8625 8.06942 8.98563C10.9501 6.10872 14.855 4.49227 18.9268 4.49121H521.07C523.085 4.49121 525.081 4.88813 526.943 5.6593C528.805 6.43047 530.496 7.56078 531.921 8.98567C533.346 10.4106 534.476 12.1021 535.247 13.9638C536.018 15.8254 536.415 17.8206 536.414 19.8354L536.418 142.041Z" fill="white"></path><path d="M521.073 160.93H18.9262C13.9125 160.929 9.10404 158.94 5.55583 155.398C2.00763 151.857 0.00953966 147.053 0 142.041L0 19.8394C0.00741701 14.8245 2.00419 10.0174 5.55228 6.4725C9.10037 2.9276 13.91 0.934408 18.9262 0.930176L521.069 0.930176C526.085 0.936521 530.893 2.93039 534.441 6.47483C537.988 10.0193 539.986 14.8252 539.995 19.8394V142.041C540.003 152.46 531.499 160.93 521.073 160.93V160.93Z" fill="#A6A6A6"></path><path d="M536.418 142.041C536.418 144.055 536.021 146.049 535.25 147.909C534.478 149.769 533.348 151.459 531.923 152.883C530.498 154.306 528.806 155.434 526.945 156.203C525.083 156.973 523.088 157.367 521.074 157.365H18.9268C14.8569 157.369 10.9519 155.757 8.07064 152.884C5.18939 150.01 3.5678 146.11 3.5625 142.041V19.8354C3.5678 15.7647 5.18875 11.8625 8.06942 8.98563C10.9501 6.10872 14.855 4.49227 18.9268 4.49121H521.07C523.085 4.49121 525.081 4.88813 526.943 5.6593C528.805 6.43047 530.496 7.56078 531.921 8.98567C533.346 10.4106 534.476 12.1021 535.247 13.9638C536.018 15.8254 536.415 17.8206 536.414 19.8354L536.418 142.041Z" fill="black"></path><path d="M120.577 80.0881C120.461 67.1926 131.139 60.9188 131.627 60.6267C125.58 51.8123 116.207 50.608 112.913 50.512C105.041 49.6837 97.4046 55.2213 93.3945 55.2213C89.3043 55.2213 83.1289 50.592 76.4733 50.728C67.9087 50.8601 59.8964 55.8174 55.502 63.5155C46.4331 79.2119 53.1968 102.278 61.8855 114.966C66.2318 121.183 71.3106 128.117 77.9581 127.873C84.4616 127.609 86.891 123.732 94.7392 123.732C102.515 123.732 104.797 127.873 111.576 127.717C118.556 127.609 122.95 121.475 127.145 115.206C132.167 108.088 134.184 101.07 134.265 100.71C134.104 100.654 120.713 95.5404 120.577 80.0881V80.0881ZM107.77 42.1657C111.268 37.7925 113.661 31.8428 112.997 25.8052C107.934 26.0292 101.603 29.3061 97.9569 33.5833C94.7312 37.3524 91.8496 43.53 92.594 49.3396C98.2811 49.7638 104.12 46.4709 107.77 42.1657V42.1657Z" fill="white"></path><path d="M521.073 0.930176H252.107L357.456 160.93H521.073C526.087 160.926 530.896 158.934 534.444 155.391C537.992 151.848 539.989 147.042 539.999 142.029V19.8394C539.99 14.8249 537.993 10.0183 534.445 6.47367C530.897 2.92899 526.088 0.935465 521.073 0.930176V0.930176Z" fill="url(#paint0_linear_1537_94)"></path><path d="M214.777 126.981H205.688L200.709 111.34H183.404L178.661 126.981H169.812L186.962 73.734H197.551L214.777 126.981V126.981ZM199.208 104.779L194.706 90.8747C194.23 89.4543 193.333 86.1094 192.02 80.844H191.86C191.332 83.1086 190.488 86.4535 189.331 90.8747L184.905 104.779H199.208ZM258.793 107.311C258.793 113.841 257.02 119.002 253.47 122.792C250.292 126.164 246.342 127.849 241.631 127.849C236.545 127.849 232.887 126.036 230.665 122.403V142.549H222.133V101.206C222.133 97.1044 222.025 92.8993 221.817 88.5861H229.321L229.797 94.6718H229.957C232.802 90.0865 237.121 87.7939 242.916 87.7939C247.446 87.7939 251.228 89.5824 254.254 93.1634C257.276 96.7523 258.793 101.466 258.793 107.311ZM250.1 107.623C250.1 103.886 249.259 100.805 247.57 98.3768C245.725 95.8521 243.248 94.5878 240.142 94.5878C238.037 94.5878 236.124 95.2919 234.415 96.6803C232.702 98.0807 231.582 99.9092 231.058 102.174C230.824 103.021 230.691 103.892 230.661 104.771V111.176C230.661 113.965 231.518 116.322 233.231 118.25C234.944 120.171 237.169 121.135 239.906 121.135C243.12 121.135 245.621 119.891 247.41 117.422C249.203 114.945 250.1 111.68 250.1 107.623V107.623ZM302.964 107.311C302.964 113.841 301.191 119.002 297.642 122.792C294.46 126.164 290.514 127.849 285.799 127.849C280.712 127.849 277.054 126.036 274.833 122.403V142.549H266.301V101.206C266.301 97.1044 266.193 92.8993 265.984 88.5861H273.488L273.965 94.6718H274.125C276.966 90.0865 281.285 87.7939 287.084 87.7939C291.61 87.7939 295.392 89.5824 298.426 93.1634C301.444 96.7523 302.964 101.466 302.964 107.311V107.311ZM294.268 107.623C294.268 103.886 293.423 100.805 291.734 98.3768C289.889 95.8521 287.42 94.5878 284.314 94.5878C282.209 94.5878 280.296 95.2919 278.579 96.6803C276.866 98.0807 275.75 99.9092 275.225 102.174C274.965 103.23 274.825 104.09 274.825 104.771V111.176C274.825 113.965 275.686 116.322 277.391 118.25C279.103 120.167 281.329 121.135 284.074 121.135C287.292 121.135 289.793 119.891 291.578 117.422C293.371 114.945 294.268 111.68 294.268 107.623V107.623ZM352.351 112.045C352.351 116.578 350.766 120.263 347.616 123.108C344.151 126.212 339.312 127.769 333.109 127.769C327.378 127.769 322.783 126.665 319.317 124.452L321.29 117.342C325.032 119.559 329.142 120.663 333.617 120.663C336.835 120.663 339.336 119.935 341.121 118.49C342.91 117.042 343.814 115.105 343.814 112.689C343.814 110.524 343.066 108.712 341.597 107.235C340.12 105.763 337.679 104.39 334.249 103.13C324.924 99.6531 320.258 94.5677 320.258 87.8779C320.258 83.5087 321.907 79.9317 325.196 77.1349C328.486 74.3422 332.849 72.9458 338.275 72.9458C343.122 72.9458 347.16 73.79 350.366 75.4745L348.225 82.4284C345.207 80.796 341.801 79.9797 337.991 79.9797C334.982 79.9797 332.62 80.7199 330.931 82.1923C329.511 83.5087 328.79 85.1131 328.79 87.0177C328.79 89.1182 329.611 90.8627 331.244 92.2311C332.66 93.4914 335.246 94.8638 338.984 96.3362C343.57 98.1847 346.94 100.337 349.097 102.81C351.27 105.283 352.351 108.368 352.351 112.045ZM380.634 94.9879H371.229V113.629C371.229 118.37 372.886 120.735 376.208 120.735C377.733 120.735 378.997 120.607 379.998 120.339L380.234 126.817C378.553 127.445 376.34 127.761 373.598 127.761C370.229 127.761 367.595 126.733 365.694 124.676C363.801 122.619 362.849 119.175 362.849 114.325V94.9719H357.246V88.5701H362.849V81.5402L371.229 79.0115V88.5701H380.634V94.9879V94.9879ZM422.985 107.467C422.985 113.369 421.296 118.214 417.926 122.003C414.401 125.904 409.71 127.849 403.863 127.849C398.22 127.849 393.733 125.98 390.388 122.247C387.042 118.506 385.369 113.793 385.369 108.107C385.369 102.158 387.098 97.2845 390.544 93.4954C393.997 89.7024 398.648 87.8059 404.495 87.8059C410.13 87.8059 414.657 89.6784 418.082 93.4154C421.356 97.0404 422.985 101.722 422.985 107.467ZM414.14 107.663C414.14 104.146 413.38 101.13 411.855 98.6049C410.066 95.556 407.505 94.0316 404.187 94.0316C400.769 94.0316 398.148 95.556 396.363 98.6049C394.834 101.13 394.074 104.198 394.074 107.823C394.074 111.344 394.834 114.369 396.363 116.886C398.208 119.935 400.781 121.459 404.115 121.459C407.377 121.459 409.934 119.903 411.783 116.81C413.352 114.225 414.14 111.188 414.14 107.663ZM450.732 96.0882C449.845 95.928 448.944 95.849 448.043 95.8521C445.041 95.8521 442.72 96.9804 441.087 99.253C439.67 101.254 438.958 103.782 438.958 106.835V126.981H430.425V100.677C430.433 96.647 430.35 92.6169 430.177 88.5901H437.609L437.921 95.9361H438.157C439.062 93.4114 440.479 91.3749 442.424 89.8505C444.204 88.5184 446.367 87.797 448.591 87.7939C449.379 87.7939 450.092 87.8499 450.724 87.9499L450.732 96.0882V96.0882ZM488.893 105.967C488.914 107.264 488.81 108.559 488.581 109.836H462.983C463.079 113.629 464.319 116.534 466.697 118.534C468.854 120.319 471.643 121.215 475.069 121.215C478.859 121.215 482.317 120.615 485.427 119.403L486.764 125.32C483.13 126.905 478.839 127.693 473.889 127.693C467.933 127.693 463.259 125.94 459.857 122.443C456.463 118.942 454.762 114.237 454.762 108.344C454.762 102.558 456.343 97.7366 459.509 93.8916C462.823 89.7864 467.301 87.7339 472.936 87.7339C478.471 87.7339 482.661 89.7864 485.507 93.8916C487.76 97.1444 488.893 101.178 488.893 105.967V105.967ZM480.756 103.754C480.816 101.222 480.256 99.041 479.099 97.1965C477.623 94.8198 475.349 93.6355 472.304 93.6355C469.514 93.6355 467.241 94.7918 465.512 97.1124C464.091 98.9569 463.247 101.174 462.987 103.746L480.756 103.754Z" fill="white"></path><path d="M180.942 54.909C178.569 54.909 176.516 54.793 174.807 54.597V28.8539C177.197 28.4848 179.612 28.3028 182.031 28.3097C191.816 28.3097 196.322 33.1231 196.322 40.9692C196.322 50.0197 190.999 54.909 180.942 54.909ZM182.375 31.6106C181.054 31.6106 179.929 31.6907 178.997 31.8827V51.4521C179.501 51.5321 180.47 51.5681 181.83 51.5681C188.242 51.5681 191.892 47.9191 191.892 41.0852C191.892 34.9916 188.59 31.6106 182.375 31.6106V31.6106ZM210.366 55.1051C204.851 55.1051 201.277 50.988 201.277 45.3984C201.277 39.5728 204.927 35.4197 210.678 35.4197C216.113 35.4197 219.767 39.3408 219.767 45.0903C219.767 50.988 216.001 55.1051 210.366 55.1051ZM210.526 38.4845C207.496 38.4845 205.555 41.3173 205.555 45.2784C205.555 49.1635 207.536 51.9962 210.486 51.9962C213.435 51.9962 215.417 48.9674 215.417 45.1984C215.417 41.3573 213.476 38.4845 210.526 38.4845ZM251.216 35.8078L245.313 54.677H241.467L239.021 46.4827C238.413 44.4784 237.907 42.4445 237.504 40.3891H237.424C237.116 42.4456 236.532 44.5062 235.912 46.4827L233.31 54.677H229.424L223.869 35.8078H228.179L230.317 44.7783C230.821 46.9148 231.245 48.9314 231.597 50.8359H231.677C231.985 49.2475 232.49 47.2629 233.23 44.8183L235.912 35.8118H239.329L241.895 44.6262C242.515 46.7628 243.019 48.8594 243.412 50.8399H243.524C243.796 48.8994 244.224 46.8388 244.804 44.6262L247.098 35.8118L251.216 35.8078V35.8078ZM272.948 54.677H268.753V43.842C268.753 40.5051 267.473 38.8326 264.947 38.8326C262.462 38.8326 260.753 40.9692 260.753 43.4539V54.677H256.559V41.2013C256.559 39.5328 256.519 37.7443 256.403 35.8038H260.093L260.289 38.7166H260.405C261.533 36.7 263.823 35.4197 266.388 35.4197C270.35 35.4197 272.952 38.4485 272.952 43.3779L272.948 54.677V54.677ZM284.514 54.677H280.316V27.1494H284.514V54.677ZM299.806 55.1051C294.295 55.1051 290.717 50.988 290.717 45.3984C290.717 39.5728 294.367 35.4197 300.114 35.4197C305.553 35.4197 309.203 39.3408 309.203 45.0903C309.207 50.988 305.437 55.1051 299.806 55.1051ZM299.962 38.4845C296.933 38.4845 294.991 41.3173 294.991 45.2784C294.991 49.1635 296.977 51.9962 299.918 51.9962C302.872 51.9962 304.849 48.9674 304.849 45.1984C304.853 41.3573 302.916 38.4845 299.962 38.4845V38.4845ZM325.74 54.677L325.436 52.5044H325.324C324.043 54.2529 322.174 55.1051 319.805 55.1051C316.423 55.1051 314.022 52.7365 314.022 49.5516C314.022 44.8943 318.06 42.4856 325.052 42.4856V42.1375C325.052 39.6529 323.735 38.4085 321.134 38.4085C319.273 38.4085 317.64 38.8766 316.203 39.8089L315.35 37.0521C317.095 35.9638 319.273 35.4197 321.83 35.4197C326.761 35.4197 329.25 38.0204 329.25 43.2258V50.1757C329.25 52.0803 329.334 53.5567 329.522 54.681L325.74 54.677V54.677ZM325.164 45.2784C320.505 45.2784 318.168 46.4067 318.168 49.0834C318.168 51.064 319.373 52.0323 321.046 52.0323C323.179 52.0323 325.164 50.4038 325.164 48.1912V45.2784V45.2784ZM349.617 54.677L349.421 51.6481H349.305C348.1 53.9368 346.075 55.1051 343.246 55.1051C338.695 55.1051 335.325 51.104 335.325 45.4745C335.325 39.5728 338.819 35.4157 343.59 35.4157C346.115 35.4157 347.904 36.2679 348.913 37.9804H348.997V27.1494H353.195V49.5916C353.195 51.4161 353.239 53.1246 353.351 54.677H349.617ZM348.997 43.5739C348.997 40.9332 347.248 38.6806 344.578 38.6806C341.469 38.6806 339.568 41.4373 339.568 45.3184C339.568 49.1235 341.541 51.7282 344.494 51.7282C347.132 51.7282 348.997 49.4355 348.997 46.7188V43.5739ZM379.813 55.1051C374.302 55.1051 370.728 50.988 370.728 45.3984C370.728 39.5728 374.378 35.4197 380.125 35.4197C385.564 35.4197 389.214 39.3408 389.214 45.0903C389.218 50.988 385.452 55.1051 379.813 55.1051ZM379.969 38.4845C376.944 38.4845 375.003 41.3173 375.003 45.2784C375.003 49.1635 376.984 51.9962 379.929 51.9962C382.883 51.9962 384.86 48.9674 384.86 45.1984C384.868 41.3573 382.927 38.4845 379.969 38.4845ZM411.771 54.677H407.572V43.842C407.572 40.5051 406.292 38.8326 403.766 38.8326C401.281 38.8326 399.576 40.9692 399.576 43.4539V54.677H395.378V41.2013C395.378 39.5328 395.338 37.7443 395.222 35.8038H398.912L399.108 38.7166H399.224C400.348 36.7 402.642 35.4157 405.203 35.4157C409.165 35.4157 411.771 38.4445 411.771 43.3739V54.677ZM439.99 38.9527H435.375V48.1152C435.375 50.4478 436.184 51.6121 437.817 51.6121C438.557 51.6121 439.177 51.5321 439.678 51.4161L439.794 54.601C438.981 54.913 437.893 55.0691 436.54 55.0691C433.234 55.0691 431.257 53.2446 431.257 48.4673V38.9527H428.504V35.8078H431.257V32.3508L435.375 31.1065V35.8038H439.99V38.9527V38.9527ZM462.194 54.677H458.003V43.922C458.003 40.5451 456.727 38.8366 454.197 38.8366C452.024 38.8366 449.999 40.313 449.999 43.3019V54.677H445.809V27.1494H449.999V38.4845H450.083C451.404 36.428 453.317 35.4157 455.758 35.4157C459.752 35.4157 462.194 38.5205 462.194 43.4539V54.677V54.677ZM484.942 46.2507H472.355C472.435 49.8236 474.801 51.8402 478.302 51.8402C480.163 51.8402 481.876 51.5281 483.389 50.948L484.041 53.8608C482.257 54.637 480.155 55.0251 477.71 55.0251C471.807 55.0251 468.313 51.2961 468.313 45.5145C468.313 39.7289 471.891 35.3797 477.238 35.3797C482.06 35.3797 485.086 38.9527 485.086 44.3501C485.113 44.9871 485.065 45.6251 484.942 46.2507V46.2507ZM481.096 43.2618C481.096 40.349 479.627 38.2925 476.946 38.2925C474.536 38.2925 472.631 40.3891 472.359 43.2618H481.096V43.2618Z" fill="white"></path><defs><linearGradient id="paint0_linear_1537_94" x1="396.049" y1="161.355" x2="396.049" y2="-415.682" gradientUnits="userSpaceOnUse"><stop stop-color="#1A1A1A" stop-opacity="0.1"></stop><stop offset="0.123" stop-color="#212121" stop-opacity="0.151"></stop><stop offset="0.308" stop-color="#353535" stop-opacity="0.227"></stop><stop offset="0.532" stop-color="#575757" stop-opacity="0.318"></stop><stop offset="0.783" stop-color="#858585" stop-opacity="0.421"></stop><stop offset="1" stop-color="#B3B3B3" stop-opacity="0.51"></stop></linearGradient></defs></svg>