<svg xmlns="http://www.w3.org/2000/svg" width="540" height="159" viewBox="0 0 540 159" fill="none"><path fill-rule="evenodd" clip-rule="evenodd" d="M519.993 159H20.0074C8.98046 159 0 150.039 0 139.125V19.875C0 8.92145 8.98046 0 20.0074 0H519.993C531.01 0 540 8.92145 540 19.875V139.125C540 150.039 531.01 159 519.993 159Z" fill="black"></path><path fill-rule="evenodd" clip-rule="evenodd" d="M519.993 3.18198C529.241 3.18198 536.811 10.6859 536.811 19.875V139.125C536.811 148.314 529.291 155.818 519.993 155.818H20.0074C10.7587 155.818 3.18886 148.314 3.18886 139.125V19.875C3.18886 10.6859 10.709 3.18198 20.0074 3.18198C20.0074 3.18198 519.993 3.18198 519.993 3.18198ZM519.993 0H20.0074C8.98046 0 0 8.9611 0 19.875V139.125C0 150.079 8.98046 159 20.0074 159H519.993C531.01 159 540 150.079 540 139.125V19.875C540 8.9611 531.01 0 519.993 0Z" fill="#A6A6A6"></path><path d="M284.473 52.5967C280.867 52.5967 277.827 51.3378 275.423 48.8597C273.039 46.4509 271.708 43.1301 271.768 39.74C271.768 36.1218 272.999 33.0588 275.423 30.6302C277.817 28.152 280.857 26.8931 284.463 26.8931C288.03 26.8931 291.07 28.152 293.513 30.6302C295.937 33.1381 297.169 36.2011 297.169 39.74C297.129 43.368 295.898 46.431 293.513 48.8497C291.119 51.3477 288.079 52.5967 284.473 52.5967ZM177.175 52.5967C173.648 52.5967 170.588 51.3577 168.085 48.9092C165.601 46.4707 164.34 43.3878 164.34 39.7499C164.34 36.1119 165.601 33.029 168.085 30.5905C170.539 28.1421 173.598 26.903 177.175 26.903C178.923 26.903 180.622 27.2499 182.251 27.9537C183.85 28.6377 185.152 29.5695 186.115 30.7095L186.354 30.9969L183.662 33.6337L183.384 33.3066C181.864 31.5025 179.827 30.6202 177.135 30.6202C174.731 30.6202 172.635 31.4727 170.906 33.1579C169.168 34.853 168.284 37.0734 168.284 39.7598C168.284 42.4461 169.168 44.6666 170.906 46.3617C172.635 48.0468 174.731 48.8993 177.135 48.8993C179.698 48.8993 181.854 48.0468 183.533 46.3617C184.526 45.3704 185.142 43.9826 185.36 42.228H176.728V38.5207H189.066L189.116 38.8577C189.205 39.4822 189.294 40.1265 189.294 40.7213C189.294 44.1412 188.261 46.9068 186.215 48.9489C183.89 51.3676 180.85 52.5967 177.175 52.5967ZM319.839 52.0714H316.034L304.381 33.4652L304.481 36.8157V52.0615H300.676V27.4284H305.017L305.136 27.6167L316.094 45.1424L315.994 41.8018V27.4284H319.839V52.0714V52.0714ZM255.883 52.0714H252.028V31.1357H245.343V27.4284H262.559V31.1357H255.873V52.0714H255.883ZM242.204 52.0714H238.359V27.4284H242.204V52.0714ZM220.597 52.0714H216.752V31.1357H210.067V27.4284H227.283V31.1357H220.597V52.0714ZM207.633 52.0317H192.891V27.4284H207.633V31.1357H196.745V37.8962H206.57V41.5639H196.745V48.3244H207.633V52.0317ZM278.245 46.3121C279.963 48.027 282.049 48.8894 284.473 48.8894C286.967 48.8894 289.003 48.0468 290.702 46.3121C292.391 44.6269 293.245 42.4164 293.245 39.7499C293.245 37.0833 292.391 34.8629 290.712 33.1876C288.993 31.4727 286.897 30.6103 284.483 30.6103C281.99 30.6103 279.953 31.4529 278.265 33.1876C276.576 34.8728 275.721 37.0833 275.721 39.7499C275.721 42.4164 276.566 44.6368 278.245 46.3121Z" fill="white"></path><path fill-rule="evenodd" clip-rule="evenodd" d="M271.411 86.4788C262.023 86.4788 254.414 93.5862 254.414 103.39C254.414 113.104 262.073 120.301 271.411 120.301C280.799 120.301 288.408 113.144 288.408 103.39C288.408 93.5862 280.799 86.4788 271.411 86.4788ZM271.411 113.6C266.275 113.6 261.854 109.357 261.854 103.35C261.854 97.2539 266.285 93.1005 271.411 93.1005C276.547 93.1005 280.968 97.2539 280.968 103.35C280.978 109.397 276.547 113.6 271.411 113.6ZM234.327 86.4788C224.939 86.4788 217.33 93.5862 217.33 103.39C217.33 113.104 224.989 120.301 234.327 120.301C243.715 120.301 251.324 113.144 251.324 103.39C251.324 93.5862 243.705 86.4788 234.327 86.4788ZM234.327 113.6C229.191 113.6 224.77 109.357 224.77 103.35C224.77 97.2539 229.201 93.1005 234.327 93.1005C239.463 93.1005 243.884 97.2539 243.884 103.35C243.884 109.397 239.463 113.6 234.327 113.6ZM190.2 91.6433V98.8003H207.415C206.889 102.815 205.558 105.779 203.521 107.811C200.998 110.329 197.104 113.065 190.239 113.065C179.659 113.065 171.384 104.54 171.384 93.9827C171.384 83.4257 179.659 74.9007 190.239 74.9007C195.951 74.9007 200.114 77.1509 203.203 80.0256L208.29 74.9503C203.998 70.8464 198.286 67.7041 190.279 67.7041C175.765 67.7041 163.586 79.5002 163.586 93.9431C163.586 108.426 175.755 120.182 190.279 120.182C198.117 120.182 203.998 117.625 208.647 112.807C213.386 108.079 214.886 101.407 214.886 96.0247C214.886 94.3495 214.757 92.8428 214.489 91.564H190.19C190.2 91.5541 190.2 91.6433 190.2 91.6433ZM370.693 97.2143C369.272 93.4177 364.981 86.4391 356.179 86.4391C347.457 86.4391 340.205 93.2888 340.205 103.35C340.205 112.847 347.378 120.261 357.024 120.261C364.772 120.261 369.282 115.533 371.14 112.757L365.388 108.911C363.481 111.736 360.828 113.59 357.063 113.59C353.259 113.59 350.596 111.865 348.828 108.465L371.488 99.0977C371.488 99.1076 370.693 97.2143 370.693 97.2143ZM347.586 102.865C347.407 96.332 352.672 93.0113 356.437 93.0113C359.408 93.0113 361.881 94.4684 362.726 96.5898L347.586 102.865ZM329.178 119.25H336.619V69.5677H329.178V119.25ZM316.959 90.2357H316.691C315.012 88.2433 311.823 86.4391 307.75 86.4391C299.296 86.4391 291.508 93.8638 291.508 103.4C291.508 112.896 299.257 120.232 307.75 120.232C311.774 120.232 315.012 118.418 316.691 116.385H316.959V118.814C316.959 125.267 313.502 128.747 307.929 128.747C303.369 128.747 300.538 125.475 299.386 122.74L292.919 125.436C294.776 129.896 299.733 135.418 307.919 135.418C316.641 135.418 324.032 130.293 324.032 117.793V87.4502H316.999V90.2357C317.009 90.2357 316.959 90.2357 316.959 90.2357ZM308.416 113.6C303.28 113.6 298.988 109.318 298.988 103.4C298.988 97.4323 303.28 93.1104 308.416 93.1104C313.502 93.1104 317.446 97.4819 317.446 103.4C317.496 109.318 313.512 113.6 308.416 113.6ZM405.532 69.5677H387.74V119.25H395.181V100.436H405.542C413.777 100.436 421.874 94.4784 421.874 85.0216C421.874 75.5649 413.807 69.5677 405.532 69.5677ZM405.751 93.497H395.171V76.4471H405.751C411.324 76.4471 414.473 81.0367 414.473 84.9721C414.473 88.8678 411.284 93.497 405.751 93.497ZM451.696 86.3896C446.292 86.3896 440.719 88.7785 438.414 93.9827L445.01 96.7186C446.431 93.9827 449.034 93.0509 451.785 93.0509C455.64 93.0509 459.534 95.3507 459.623 99.4545V99.9799C458.292 99.2265 455.372 98.0767 451.875 98.0767C444.752 98.0767 437.53 101.962 437.53 109.248C437.53 115.92 443.371 120.202 449.878 120.202C454.875 120.202 457.627 117.952 459.345 115.345H459.613V119.191H466.786V100.158C466.786 91.2964 460.19 86.3896 451.696 86.3896ZM450.762 113.6C448.328 113.6 444.921 112.41 444.921 109.357C444.921 105.511 449.173 104.054 452.799 104.054C456.077 104.054 457.627 104.758 459.574 105.729C459.037 110.19 455.262 113.56 450.762 113.6ZM492.952 87.4502L484.409 109H484.141L475.29 87.4502H467.283L480.565 117.575L472.995 134.318H480.743L501.178 87.4502H492.952ZM425.976 119.25H433.417V69.5677H425.976V119.25Z" fill="white"></path><path fill-rule="evenodd" clip-rule="evenodd" d="M41.564 29.9464C40.4117 31.1854 39.7461 33.0788 39.7461 35.557V123.453C39.7461 125.931 40.4117 127.825 41.6038 129.014L41.9117 129.282L91.2646 80.0353V78.935L41.872 29.6787L41.564 29.9464Z" fill="url(#paint0_linear_1537_81)"></path><path fill-rule="evenodd" clip-rule="evenodd" d="M107.685 96.5001L91.2246 80.0748V78.9249L107.685 62.4995L108.043 62.7176L127.514 73.7604C133.087 76.8928 133.087 82.0672 127.514 85.2393L108.043 96.2821L107.685 96.5001Z" fill="url(#paint1_linear_1537_81)"></path><path fill-rule="evenodd" clip-rule="evenodd" d="M108.044 96.2822L91.2252 79.5L41.5645 129.054C43.3824 130.997 46.4322 131.215 49.8396 129.321L108.044 96.2822Z" fill="url(#paint2_linear_1537_81)"></path><path fill-rule="evenodd" clip-rule="evenodd" d="M108.044 62.7177L49.8396 29.7282C46.4322 27.7853 43.3725 28.0529 41.5645 29.9958L91.2252 79.5L108.044 62.7177Z" fill="url(#paint3_linear_1537_81)"></path><path opacity="0.2" fill-rule="evenodd" clip-rule="evenodd" d="M107.685 95.9253L49.8787 128.697C46.6501 130.55 43.7692 130.422 41.9115 128.736L41.6035 129.044L41.9115 129.311C43.7692 130.987 46.6501 131.125 49.8787 129.272L108.083 96.2821L107.685 95.9253Z" fill="black"></path><path opacity="0.12" fill-rule="evenodd" clip-rule="evenodd" d="M127.515 84.6645L107.637 95.9254L107.994 96.2822L127.465 85.2395C130.257 83.6534 131.628 81.5718 131.628 79.5C131.459 81.4032 130.038 83.2074 127.515 84.6645Z" fill="black"></path><path opacity="0.25" fill-rule="evenodd" clip-rule="evenodd" d="M49.8392 30.3034L127.514 74.3356C130.038 75.7532 131.458 77.6068 131.677 79.5002C131.677 77.4284 130.306 75.3467 127.514 73.7607L49.8392 29.7284C44.2661 26.5464 39.7461 29.203 39.7461 35.5571V36.132C39.7461 29.7681 44.2661 27.161 49.8392 30.3034Z" fill="white"></path><defs><linearGradient id="paint0_linear_1537_81" x1="86.8377" y1="34.6086" x2="7.80566" y2="55.7123" gradientUnits="userSpaceOnUse"><stop stop-color="#00A0FF"></stop><stop offset="0.00657" stop-color="#00A1FF"></stop><stop offset="0.2601" stop-color="#00BEFF"></stop><stop offset="0.5122" stop-color="#00D2FF"></stop><stop offset="0.7604" stop-color="#00DFFF"></stop><stop offset="1" stop-color="#00E3FF"></stop></linearGradient><linearGradient id="paint1_linear_1537_81" x1="134.782" y1="79.5" x2="38.3914" y2="79.5" gradientUnits="userSpaceOnUse"><stop stop-color="#FFE000"></stop><stop offset="0.4087" stop-color="#FFBD00"></stop><stop offset="0.7754" stop-color="#FFA500"></stop><stop offset="1" stop-color="#FF9C00"></stop></linearGradient><linearGradient id="paint2_linear_1537_81" x1="98.8985" y1="88.6319" x2="35.6361" y2="195.338" gradientUnits="userSpaceOnUse"><stop stop-color="#FF3A44"></stop><stop offset="1" stop-color="#C31162"></stop></linearGradient><linearGradient id="paint3_linear_1537_81" x1="29.0593" y1="0.710642" x2="57.2832" y2="48.3671" gradientUnits="userSpaceOnUse"><stop stop-color="#32A071"></stop><stop offset="0.0685" stop-color="#2DA771"></stop><stop offset="0.4762" stop-color="#15CF74"></stop><stop offset="0.8009" stop-color="#06E775"></stop><stop offset="1" stop-color="#00F076"></stop></linearGradient></defs></svg>